HIERARCHY
ROOT hip
{
	OFFSET 0.000000 0.000000 0.000000 
	CHANNELS 6 Xposition Yposition Zposition Xrotation Zrotation Yrotation
	JOINT abdomen
	{
		OFFSET 0.000000 3.402643 0.000000 
		CHANNELS 3 Xrotation Zrotation Yrotation
		JOINT chest
		{
			OFFSET 0.000000 8.438565 -0.680529 
			CHANNELS 3 Xrotation Zrotation Yrotation
			JOINT neck
			{
				OFFSET 0.000000 10.207942 -0.272212 
				CHANNELS 3 Xrotation Zrotation Yrotation
				JOINT head
				{
					OFFSET 0.000000 3.130431 0.000000 
					CHANNELS 3 Xrotation Zrotation Yrotation
					End Site
					{
						OFFSET 0.000000 3.130435 0.000000 
					}
				}
			}
			JOINT lCollar
			{
				OFFSET 3.470700 6.669187 -0.816635 
				CHANNELS 3 Yrotation Zrotation Xrotation
				JOINT lShldr
				{
					OFFSET 3.198488 0.000000 0.000000 
					CHANNELS 3 Zrotation Yrotation Xrotation
					JOINT lForeArm
					{
						OFFSET 10.139888 0.000000 0.000000 
						CHANNELS 3 Yrotation Zrotation Xrotation
						JOINT lHand
						{
							OFFSET 8.370511 0.000000 0.000000 
							CHANNELS 3 Zrotation Yrotation Xrotation
							End Site
							{
								OFFSET 4.083176 0.000000 0.000000 
							}
						}
					}
				}
			}
			JOINT rCollar
			{
				OFFSET -3.470700 6.669187 -0.816635 
				CHANNELS 3 Yrotation Zrotation Xrotation
				JOINT rShldr
				{
					OFFSET -3.198488 0.000000 0.000000 
					CHANNELS 3 Zrotation Yrotation Xrotation
					JOINT rForeArm
					{
						OFFSET -10.139888 0.000000 0.000000 
						CHANNELS 3 Yrotation Zrotation Xrotation
						JOINT rHand
						{
							OFFSET -8.370511 0.000000 0.000000 
							CHANNELS 3 Zrotation Yrotation Xrotation
							End Site
							{
								OFFSET -4.083176 0.000000 0.000000 
							}
						}
					}
				}
			}
		}
	}
	JOINT lThigh
	{
		OFFSET 5.308129 -1.633274 1.361059 
		CHANNELS 3 Xrotation Zrotation Yrotation
		JOINT lShin
		{
			OFFSET -2.041588 -20.007561 0.000000 
			CHANNELS 3 Xrotation Zrotation Yrotation
			JOINT lFoot
			{
				OFFSET 0.000000 -19.190928 -1.224953 
				CHANNELS 3 Xrotation Yrotation Zrotation
				End Site
				{
					OFFSET 0.000000 -2.449906 4.627600 
				}
			}
		}
	}
	JOINT rThigh
	{
		OFFSET -5.308129 -1.633274 1.361059 
		CHANNELS 3 Xrotation Zrotation Yrotation
		JOINT rShin
		{
			OFFSET 2.041588 -20.007561 0.000000 
			CHANNELS 3 Xrotation Zrotation Yrotation
			JOINT rFoot
			{
				OFFSET 0.000000 -19.190928 -1.224953 
				CHANNELS 3 Xrotation Yrotation Zrotation
				End Site
				{
					OFFSET 0.000000 -2.449906 4.627600 
				}
			}
		}
	}
}
MOTION
Frames: 6
Frame Time: 0.033333
-0.180649 49.192009 0.447939 -1.501965 1.035154 0.107581 0.000000 0.000000 0.000000 -3.750206 -0.823150 0.735027 6.741960 -1.269526 -0.166191 6.999640 -2.148368 -0.459394 0.706228 8.569546 -2.835362 -6.129537 1.449303 -29.947742 1.790644 -1.602823 30.919146 0.107301 -4.454570 -3.386779 0.484741 -11.551200 -2.849561 1.813403 -8.101780 -12.996408 -1.354783 4.450512 14.781289 -0.824829 2.973396 -3.465884 0.029177 7.234394 4.276609 13.757197 -2.813957 7.579225 -10.745943 0.650825 -6.914719 0.732168 -12.899790 -9.714808 12.188871 2.867319 0.601646 -9.345364 -0.711113 8.563307 
-0.164492 49.191639 0.468148 -1.415330 1.005859 0.039228 0.000000 0.000000 0.000000 -3.818379 -0.738938 0.795731 6.614951 -1.328120 -0.156434 7.139968 -2.070208 -0.576854 0.790046 8.477006 -2.902919 -5.990459 1.357626 -29.844589 1.848945 -1.630184 31.320042 0.249327 -4.367915 -3.398155 0.358461 -11.566036 -2.939645 1.788483 -8.007300 -13.042076 -1.364438 4.458169 14.752052 -0.746741 2.978117 -3.461828 0.018777 7.260545 4.317863 13.781965 -2.831651 7.536458 -10.858714 0.666603 -6.898333 0.770010 -12.864165 -9.664623 12.020811 2.839700 0.705137 -9.317586 -0.740817 8.591670 
-0.132147 49.206985 0.501469 -1.641144 1.015625 -0.029292 0.000000 0.000000 0.000000 -3.662090 -0.736181 0.824773 6.682694 -1.259762 -0.136900 7.336030 -2.040901 -0.606128 0.842231 8.563394 -2.766247 -6.158418 1.283336 -30.211550 1.809903 -1.334547 31.939686 0.349536 -4.567416 -3.405896 0.397168 -11.546106 -2.799827 1.715460 -8.003263 -12.615583 -1.361070 4.620809 14.687137 -0.764491 2.947695 -3.462545 0.369799 7.149824 4.288490 13.539774 -2.783456 7.752188 -10.717289 0.645053 -6.895444 1.151586 -12.966607 -9.908109 11.680679 2.974139 0.880484 -9.107385 -0.665655 8.536276 
-0.110388 49.196777 0.514793 -1.633045 0.986326 -0.126934 0.000000 0.000000 0.000000 -3.671765 -0.712142 0.871550 6.750891 -1.191403 -0.136892 7.024613 -2.109254 -0.615896 0.891474 8.570819 -2.766221 -6.209704 1.275181 -30.341234 1.728239 -1.209518 32.133244 0.049742 -4.311225 -3.383498 0.514163 -11.199552 -2.786363 1.322297 -8.018939 -12.406769 -1.346054 4.726219 14.434196 -1.030082 2.804441 -3.474183 0.301586 7.159263 4.299443 13.744732 -2.783554 7.875526 -10.846272 0.664091 -6.920873 1.171530 -13.006246 -9.892393 11.735090 2.965801 1.126651 -9.218016 -0.676246 8.555353 
-0.089255 49.178680 0.524984 -1.487904 1.035150 -0.195281 0.000000 0.000000 0.000000 -3.779237 -0.733424 0.853940 6.722373 -1.249995 -0.166189 6.848037 -1.913937 -0.654910 0.805185 8.476440 -2.873935 -6.318921 1.399294 -30.513744 1.409960 -0.968582 32.317230 -0.031263 -4.091044 -3.387716 0.759642 -11.223063 -2.876168 1.471549 -8.176900 -12.513171 -1.204695 4.560696 14.813319 -1.151348 2.865557 -3.481066 0.097176 7.072864 4.235934 13.977634 -2.773429 7.890815 -11.051585 0.705554 -6.904156 0.828553 -13.138684 -9.925701 12.152617 3.052998 1.278221 -9.413770 -0.667654 8.510041 
-0.044619 49.199562 0.534499 -1.499611 1.035142 -0.302685 0.000000 0.000000 0.000000 -3.720432 -0.665901 0.945660 6.731416 -1.308591 -0.127143 6.858296 -1.542807 -0.830566 0.897025 8.139939 -2.811645 -6.402953 0.825407 -31.630384 0.782463 0.045833 34.069592 -2.037280 -2.799476 -3.297622 0.586969 -11.115996 -2.834222 1.852220 -7.842358 -13.678663 -0.836302 3.884073 15.827739 -1.226206 2.968609 -3.486926 0.214099 6.990676 4.180296 13.696154 -2.734861 8.176263 -10.868585 0.666548 -6.898538 1.093009 -13.201722 -10.072240 11.641248 3.140006 1.408330 -9.133209 -0.659505 8.485912 
